<svg width="375" height="597" viewBox="0 0 375 597" fill="none" xmlns="http://www.w3.org/2000/svg">
<path d="M65.8297 72.545L235.431 1M65.8297 72.545L182.76 120.943M65.8297 72.545L12.1052 172.498M65.8297 72.545L-105.878 24.1469M235.431 1L182.76 120.943M235.431 1L304.957 107.265M182.76 120.943L304.957 107.265M182.76 120.943L12.1052 172.498M182.76 120.943V248.251M182.76 120.943L279.674 212.479M12.1052 172.498L-105.878 24.1469M12.1052 172.498L-105.878 163.028M12.1052 172.498L5.78464 284.024M12.1052 172.498L182.76 248.251M-105.878 24.1469V163.028M-105.878 163.028L5.78464 284.024M5.78464 284.024C-12.8258 331.019 -49.4147 431.533 -51.1002 440.791M5.78464 284.024L92.1653 430.27M5.78464 284.024L182.76 248.251M-128 297.701C-103.42 349.957 -52.7856 450.05 -51.1002 440.791M-51.1002 440.791L92.1653 430.27M-51.1002 440.791L44.7613 542.848M92.1653 430.27L44.7613 542.848M92.1653 430.27L182.76 248.251M92.1653 430.27L232.27 409.692M92.1653 430.27L225.95 577.569M44.7613 542.848L-55.3139 619.654M44.7613 542.848L225.95 577.569M225.95 577.569L235.431 409.227M225.95 577.569L330.239 609.133M225.95 577.569L64.7763 667M235.431 409.227L232.27 409.692M235.431 409.227L183.697 251.116M235.431 409.227L235.796 409.692M182.76 248.251L279.674 212.479M182.76 248.251L183.697 251.116M279.674 212.479L346.04 297.701M279.674 212.479L304.957 107.265M279.674 212.479L449.275 248.251M346.04 297.701L449.275 248.251M346.04 297.701L232.27 409.692M346.04 297.701L394.497 409.227M346.04 297.701L183.697 251.116M449.275 248.251L394.497 409.227M449.275 248.251L304.957 107.265M394.497 409.227L304.957 497.607M394.497 409.227L235.796 409.692M304.957 497.607L330.239 609.133M304.957 497.607L235.796 409.692M330.239 609.133L410.299 528.118M304.957 107.265L408.192 14.6777M304.957 107.265L503 129.36" stroke="#CADAE9" stroke-linecap="round"/>
</svg>
