<svg width="24" height="24" viewBox="0 0 24 24" fill="none" xmlns="http://www.w3.org/2000/svg">
<g id="Edit Icon">
<g id="Edit Square">
<path id="Stroke 1" d="M11.4461 1.95166H7.36723C4.01269 1.95166 1.90942 4.32657 1.90942 7.68875V16.7586C1.90942 20.1207 4.00287 22.4957 7.36723 22.4957H16.9934C20.3589 22.4957 22.4523 20.1207 22.4523 16.7586V12.3644" stroke="black" stroke-width="2" stroke-linecap="round" stroke-linejoin="round"/>
<path id="Stroke 3" fill-rule="evenodd" clip-rule="evenodd" d="M8.53941 10.8228L16.6918 2.67046C17.7074 1.65591 19.3536 1.65591 20.3692 2.67046L21.6969 3.99809C22.7125 5.01373 22.7125 6.661 21.6969 7.67555L13.5052 15.8672C13.0612 16.3112 12.459 16.561 11.8307 16.561H7.74414L7.84669 12.4374C7.86196 11.8308 8.1096 11.2526 8.53941 10.8228Z" stroke="black" stroke-width="2" stroke-linecap="round" stroke-linejoin="round"/>
<path id="Stroke 5" d="M15.4529 3.92999L20.434 8.91108" stroke="black" stroke-width="2" stroke-linecap="round" stroke-linejoin="round"/>
</g>
</g>
</svg>
