<svg width="22" height="22" viewBox="0 0 22 22" fill="none" xmlns="http://www.w3.org/2000/svg">
<path d="M20.0739 0.791439L11.4548 9.41053L2.83572 0.791439C2.62842 0.601739 2.35592 0.499335 2.07499 0.505559C1.79406 0.511784 1.52637 0.626158 1.32767 0.824854C1.12897 1.02355 1.0146 1.29125 1.00838 1.57217C1.00215 1.8531 1.10456 2.1256 1.29426 2.33291L9.90898 10.952L1.29207 19.5689C1.1868 19.6692 1.10264 19.7896 1.04455 19.9229C0.986461 20.0562 0.955608 20.1998 0.953808 20.3452C0.952007 20.4906 0.979294 20.6349 1.03406 20.7697C1.08883 20.9044 1.16998 21.0268 1.27274 21.1297C1.3755 21.2326 1.49779 21.3139 1.63242 21.3689C1.76706 21.4238 1.91133 21.4513 2.05674 21.4497C2.20216 21.4481 2.34578 21.4175 2.47918 21.3596C2.61258 21.3017 2.73306 21.2177 2.83354 21.1126L11.4548 12.4957L20.0739 21.1147C20.2812 21.3044 20.5537 21.4069 20.8346 21.4006C21.1156 21.3944 21.3833 21.28 21.582 21.0813C21.7807 20.8826 21.895 20.6149 21.9013 20.334C21.9075 20.0531 21.8051 19.7806 21.6154 19.5733L12.9963 10.9542L21.6154 2.33291C21.7207 2.23258 21.8048 2.11222 21.8629 1.9789C21.921 1.84559 21.9518 1.702 21.9536 1.55659C21.9554 1.41118 21.9282 1.26687 21.8734 1.13216C21.8186 0.997444 21.7375 0.875037 21.6347 0.772135C21.532 0.669232 21.4097 0.58791 21.275 0.532949C21.1404 0.477988 20.9961 0.450497 20.8507 0.452092C20.7053 0.453687 20.5617 0.484335 20.4283 0.542236C20.2949 0.600137 20.1744 0.684121 20.0739 0.789253V0.791439Z" fill="black"/>
</svg>
