<svg width="22" height="24" viewBox="0 0 22 24" fill="none" xmlns="http://www.w3.org/2000/svg">
<g id="Notes Icon">
<path id="Fill 1" fill-rule="evenodd" clip-rule="evenodd" d="M15.0352 18.0463H6.78378C6.31064 18.0463 5.92664 17.6623 5.92664 17.1891C5.92664 16.716 6.31064 16.332 6.78378 16.332H15.0352C15.5083 16.332 15.8924 16.716 15.8924 17.1891C15.8924 17.6623 15.5083 18.0463 15.0352 18.0463Z" fill="#707070"/>
<path id="Fill 3" fill-rule="evenodd" clip-rule="evenodd" d="M15.0352 13.2617H6.78378C6.31064 13.2617 5.92664 12.8777 5.92664 12.4046C5.92664 11.9314 6.31064 11.5474 6.78378 11.5474H15.0352C15.5083 11.5474 15.8924 11.9314 15.8924 12.4046C15.8924 12.8777 15.5083 13.2617 15.0352 13.2617Z" fill="#707070"/>
<path id="Fill 5" fill-rule="evenodd" clip-rule="evenodd" d="M9.932 8.48821H6.78343C6.31028 8.48821 5.92628 8.10421 5.92628 7.63107C5.92628 7.15793 6.31028 6.77393 6.78343 6.77393H9.932C10.4051 6.77393 10.7891 7.15793 10.7891 7.63107C10.7891 8.10421 10.4051 8.48821 9.932 8.48821Z" fill="#707070"/>
<g id="Group 9">
<mask id="mask0_500_88" style="mask-type:alpha" maskUnits="userSpaceOnUse" x="0" y="0" width="22" height="24">
<path id="Clip 8" fill-rule="evenodd" clip-rule="evenodd" d="M0.502853 0.933655H21.2625V23.6877H0.502853V0.933655Z" fill="white"/>
</mask>
<g mask="url(#mask0_500_88)">
<path id="Fill 7" fill-rule="evenodd" clip-rule="evenodd" d="M15.2557 2.6477L6.46823 2.65227C3.80766 2.66827 2.2168 4.31398 2.2168 7.0557V17.5654C2.2168 20.3254 3.82252 21.9734 6.50938 21.9734L15.2968 21.97C17.9574 21.954 19.5482 20.306 19.5482 17.5654V7.0557C19.5482 4.2957 17.9437 2.6477 15.2557 2.6477ZM6.51052 23.6877C2.91737 23.6877 0.502518 21.2271 0.502518 17.5654V7.0557C0.502518 3.36084 2.84195 0.959696 6.46252 0.937982L15.2545 0.933411H15.2557C18.8488 0.933411 21.2625 3.39398 21.2625 7.0557V17.5654C21.2625 21.2591 18.9231 23.6614 15.3025 23.6843L6.51052 23.6877Z" fill="#707070"/>
</g>
</g>
</g>
</svg>
